<?xml version="1.0" encoding="UTF-8" standalone="no"?>
<svg
   width="115"
   height="115"
   viewBox="0 0 115 115"
   fill="none"
   version="1.1"
   id="svg208"
   sodipodi:docname="Steam_Deck_favicon.svg"
   inkscape:version="1.2.2 (732a01da63, 2022-12-09)"
   inkscape:export-filename="Steam_Deck_favicon.png"
   inkscape:export-xdpi="213.70435"
   inkscape:export-ydpi="213.70435"
   xmlns:inkscape="http://www.inkscape.org/namespaces/inkscape"
   xmlns:sodipodi="http://sodipodi.sourceforge.net/DTD/sodipodi-0.dtd"
   xmlns:xlink="http://www.w3.org/1999/xlink"
   xmlns="http://www.w3.org/2000/svg"
   xmlns:svg="http://www.w3.org/2000/svg">
  <sodipodi:namedview
     id="namedview210"
     pagecolor="#505050"
     bordercolor="#eeeeee"
     borderopacity="1"
     inkscape:showpageshadow="0"
     inkscape:pageopacity="0"
     inkscape:pagecheckerboard="0"
     inkscape:deskcolor="#505050"
     showgrid="false"
     showguides="true"
     inkscape:zoom="7.0782609"
     inkscape:cx="50.365479"
     inkscape:cy="44.361179"
     inkscape:window-width="1920"
     inkscape:window-height="1017"
     inkscape:window-x="1912"
     inkscape:window-y="-8"
     inkscape:window-maximized="1"
     inkscape:current-layer="svg208">
    <sodipodi:guide
       position="57.217445,57.5"
       orientation="0,-1"
       id="guide1699"
       inkscape:locked="false" />
    <sodipodi:guide
       position="28.538084,87.45086"
       orientation="1,0"
       id="guide2427"
       inkscape:locked="false" />
  </sodipodi:namedview>
  <path
     fill-rule="evenodd"
     clip-rule="evenodd"
     d="m 80.0183,57.5 c 0,-20.3567 -16.412207,-36.859 -36.657603,-36.859 V 0 c 31.582899,0 57.185803,25.7436 57.185803,57.5 0,31.7564 -25.602904,57.5 -57.185803,57.5 V 94.359 C 63.606093,94.359 80.0183,77.8567 80.0183,57.5 Z"
     fill="black"
     id="path197"
     style="fill:#ffffff;fill-opacity:1;stroke-width:0.999996" />
  <defs
     id="defs206">
    <linearGradient
       id="paint0_linear"
       x1="-22.0009"
       y1="39.466702"
       x2="45.159801"
       y2="71.889099"
       gradientUnits="userSpaceOnUse"
       gradientTransform="translate(14.453497)">
      <stop
         offset="0.106991"
         stop-color="#C957E6"
         id="stop201" />
      <stop
         offset="1"
         stop-color="#1A9FFF"
         id="stop203" />
    </linearGradient>
    <clipPath
       clipPathUnits="userSpaceOnUse"
       id="clipPath2512">
      <use
         x="0"
         y="0"
         xlink:href="#g2508"
         id="use2514" />
    </clipPath>
  </defs>
  <g
     id="g2510"
     clip-path="url(#clipPath2512)">
    <g
       inkscape:label="Clip"
       id="g2508" />
  </g>
  <path
     id="circle199"
     style="fill:url(#paint0_linear);stroke-width:0.999996"
     d="M 43.046875 28.90625 A 28.59289 28.592899 0 0 0 14.453125 57.5 A 28.59289 28.592899 0 0 0 43.046875 86.09375 A 28.59289 28.592899 0 0 0 71.638672 57.5 A 28.59289 28.592899 0 0 0 43.046875 28.90625 z M 29.916016 42.78125 L 35.441406 42.78125 C 39.540208 42.78125 42.904588 46.111318 43.089844 50.169922 C 43.274891 46.111134 46.641297 42.78125 50.740234 42.78125 L 56.265625 42.78125 C 60.480341 42.78125 63.984375 46.281426 63.984375 50.498047 L 63.984375 63.654297 C 63.984375 67.870917 60.480341 71.371094 56.265625 71.371094 L 50.740234 71.371094 C 46.641297 71.371094 43.274891 68.04121 43.089844 63.982422 C 42.904588 68.041025 39.540208 71.371094 35.441406 71.371094 L 29.916016 71.371094 C 25.7013 71.371094 22.197266 67.870916 22.197266 63.654297 L 22.197266 50.498047 C 22.197266 46.281427 25.7013 42.78125 29.916016 42.78125 z M 29.916016 49.691406 C 29.407788 49.691406 29.107422 49.991725 29.107422 50.498047 L 29.107422 63.654297 C 29.107422 64.160618 29.407788 64.460938 29.916016 64.460938 L 35.441406 64.460938 C 35.949633 64.460938 36.248047 64.162522 36.248047 63.654297 L 36.248047 50.498047 C 36.248047 49.989821 35.949633 49.691406 35.441406 49.691406 L 29.916016 49.691406 z M 50.740234 49.691406 C 50.23201 49.691406 49.933594 49.989821 49.933594 50.498047 L 49.933594 63.654297 C 49.933594 64.162522 50.23201 64.460938 50.740234 64.460938 L 56.265625 64.460938 C 56.773849 64.460938 57.074219 64.160617 57.074219 63.654297 L 57.074219 50.498047 C 57.074219 49.991726 56.773849 49.691406 56.265625 49.691406 L 50.740234 49.691406 z " />
</svg>
