<?xml version="1.0" encoding="UTF-8" standalone="no"?>
<svg
   width="430.33017"
   height="115"
   viewBox="0 0 430.33017 115"
   fill="none"
   version="1.1"
   id="svg208"
   sodipodi:docname="shortix_logo.svg"
   inkscape:version="1.2.2 (732a01da63, 2022-12-09)"
   inkscape:export-filename="Steam_Deck_favicon.svg"
   inkscape:export-xdpi="213.70435"
   inkscape:export-ydpi="213.70435"
   xmlns:inkscape="http://www.inkscape.org/namespaces/inkscape"
   xmlns:sodipodi="http://sodipodi.sourceforge.net/DTD/sodipodi-0.dtd"
   xmlns="http://www.w3.org/2000/svg"
   xmlns:svg="http://www.w3.org/2000/svg">
  <sodipodi:namedview
     id="namedview210"
     pagecolor="#505050"
     bordercolor="#eeeeee"
     borderopacity="1"
     inkscape:showpageshadow="0"
     inkscape:pageopacity="0"
     inkscape:pagecheckerboard="0"
     inkscape:deskcolor="#505050"
     showgrid="false"
     showguides="true"
     inkscape:zoom="1.7695652"
     inkscape:cx="323.24324"
     inkscape:cy="-21.474201"
     inkscape:window-width="1920"
     inkscape:window-height="1017"
     inkscape:window-x="1912"
     inkscape:window-y="-8"
     inkscape:window-maximized="1"
     inkscape:current-layer="svg208">
    <sodipodi:guide
       position="42.76432,57.5"
       orientation="0,-1"
       id="guide1699"
       inkscape:locked="false" />
    <sodipodi:guide
       position="14.084959,87.45086"
       orientation="1,0"
       id="guide2427"
       inkscape:locked="false" />
  </sodipodi:namedview>
  <path
     fill-rule="evenodd"
     clip-rule="evenodd"
     d="m 65.565175,57.5 c 0,-20.3567 -16.412207,-36.859 -36.657603,-36.859 V 0 c 31.582899,0 57.185803,25.7436 57.185803,57.5 0,31.7564 -25.602904,57.5 -57.185803,57.5 V 94.359 c 20.245396,0 36.657603,-16.5023 36.657603,-36.859 z"
     fill="black"
     id="path197"
     style="fill:#ffffff;fill-opacity:1;stroke-width:0.999996" />
  <defs
     id="defs206">
    <linearGradient
       id="paint0_linear"
       x1="-22.0009"
       y1="39.466702"
       x2="45.159801"
       y2="71.889099"
       gradientUnits="userSpaceOnUse"
       gradientTransform="translate(3.72e-4)">
      <stop
         offset="0.106991"
         stop-color="#C957E6"
         id="stop201" />
      <stop
         offset="1"
         stop-color="#1A9FFF"
         id="stop203" />
    </linearGradient>
  </defs>
  <path
     id="circle199"
     style="fill:url(#paint0_linear);stroke-width:0.999996"
     d="M 28.59375,28.90625 A 28.59289,28.592899 0 0 0 0,57.5 28.59289,28.592899 0 0 0 28.59375,86.09375 28.59289,28.592899 0 0 0 57.185547,57.5 28.59289,28.592899 0 0 0 28.59375,28.90625 Z m -13.130859,13.875 h 5.52539 c 4.098802,0 7.463182,3.330068 7.648438,7.388672 0.185047,-4.058788 3.551453,-7.388672 7.65039,-7.388672 H 41.8125 c 4.214716,0 7.71875,3.500176 7.71875,7.716797 v 13.15625 c 0,4.21662 -3.504034,7.716797 -7.71875,7.716797 h -5.525391 c -4.098937,0 -7.465343,-3.329884 -7.65039,-7.388672 -0.185256,4.058603 -3.549636,7.388672 -7.648438,7.388672 h -5.52539 c -4.214716,0 -7.71875,-3.500178 -7.71875,-7.716797 v -13.15625 c 0,-4.21662 3.504034,-7.716797 7.71875,-7.716797 z m 0,6.910156 c -0.508228,0 -0.808594,0.300319 -0.808594,0.806641 v 13.15625 c 0,0.506321 0.300366,0.806641 0.808594,0.806641 h 5.52539 c 0.508227,0 0.806641,-0.298416 0.806641,-0.806641 v -13.15625 c 0,-0.508226 -0.298414,-0.806641 -0.806641,-0.806641 z m 20.824218,0 c -0.508224,0 -0.80664,0.298415 -0.80664,0.806641 v 13.15625 c 0,0.508225 0.298416,0.806641 0.80664,0.806641 H 41.8125 c 0.508224,0 0.808594,-0.300321 0.808594,-0.806641 v -13.15625 c 0,-0.506321 -0.30037,-0.806641 -0.808594,-0.806641 z" />
  <text
     xml:space="preserve"
     style="font-style:normal;font-weight:normal;font-size:103.256px;line-height:1.25;font-family:sans-serif;fill:#000000;fill-opacity:1;stroke:none;stroke-width:2.58139"
     x="97.974922"
     y="93.834457"
     id="text2676"><tspan
       sodipodi:role="line"
       id="tspan2674"
       x="97.974922"
       y="93.834457"
       style="font-style:normal;font-variant:normal;font-weight:normal;font-stretch:normal;font-family:'DIN Medium';-inkscape-font-specification:'DIN Medium, ';fill:#ffffff;fill-opacity:1;stroke-width:2.58139">Shortix</tspan></text>
</svg>
